<svg width="390" height="479" viewBox="0 0 390 479" fill="none" xmlns="http://www.w3.org/2000/svg">
<path d="M50.7968 428.832C51.3277 429.379 51.837 429.895 52.3223 430.378C84.9911 465.437 100.13 471.923 117.062 473.604C227.419 484.56 318.653 395.717 347.138 339.144C358.626 311.256 385.982 269.025 385.982 186.955C385.982 102.693 366.594 82.8399 354.708 65.0447C353.726 63.8175 347.599 57.3942 331.402 41.4451M50.7968 428.832C39.1242 416.799 17.0325 389.487 11.0879 364.641C4.97908 338.878 -6.24249 263.846 24.8327 179.585C59.4341 85.7615 134.061 39.1487 172.639 22.8143C205.042 9.06949 277.936 -10.5716 310.286 20.8223C318.722 29.0084 325.688 35.8194 331.402 41.4451M50.7968 428.832C65.2703 439.74 92.5 449 124.034 444.521C156.815 439.864 193 436 252.12 386.354C308.5 334.961 324.031 308.666 342.756 246.117C354.575 202.231 368.851 99.855 331.402 41.4451M138.974 362.45C123.37 354.615 93.3177 324.443 97.9391 266.436C103.716 193.927 102.72 160.661 142.958 112.853C175.149 74.6063 214.803 80.8479 230.606 88.7495C235.815 92.1591 242.849 99.9433 248.928 112.853M138.974 362.45C149.731 365.903 180.089 365.239 215.467 334.961C250.845 304.682 260.354 236.157 260.686 205.68C264.767 162.014 257.884 131.871 248.928 112.853M138.974 362.45C129.014 331.773 116.983 252.253 148.536 179.585C180.089 106.917 228.611 104.818 248.928 112.853" stroke="#333333" stroke-width="8"/>
</svg>
