<svg width="344" height="508" viewBox="0 0 344 508" fill="none" xmlns="http://www.w3.org/2000/svg">
<path d="M149.814 28.1072L204.794 5L295.828 40.2584M149.814 28.1072L4 262.964V335.672L172.523 399.217V475.51L242.442 503M149.814 28.1072L242.442 62.9672M295.828 40.2584V327.704M295.828 40.2584L242.442 62.9672M295.828 327.704L339.453 345.034M295.828 327.704L242.442 351.01M339.453 345.034V418.938L297.222 438.26M339.453 345.034L287.262 367.942M297.222 438.26V479.694L242.442 503M297.222 438.26L287.262 442.244M242.442 503V425.71L287.262 442.244M242.442 62.9672V351.01M242.442 351.01L287.262 367.942M287.262 367.942V442.244M78.7 289.657V284.876M78.7 289.657L173.519 325.114V282.884M78.7 289.657L133.48 267.147M78.7 284.876L170.332 137.468H173.519V196.63M78.7 284.876L133.48 262.765M133.48 267.147V262.765M133.48 267.147L173.519 282.884M133.48 262.765L173.519 196.63M173.519 196.63V282.884" stroke="#333333" stroke-width="8"/>
</svg>
