<svg width="347" height="488" viewBox="0 0 347 488" fill="none" xmlns="http://www.w3.org/2000/svg">
<path d="M37.7573 413.426L195.415 70.2888M37.7573 413.426L4 390.983M37.7573 413.426L38.1282 482.981M195.415 70.2888L295.203 26.7011M195.415 70.2888L161.843 48.5877M295.203 26.7011V264.115M295.203 26.7011L262.002 5L161.843 48.5877M342.5 278.768L295.203 300.098V264.115M342.5 278.768L309.299 257.438L295.203 264.115M342.5 278.768V349.621L295.203 370.765V443.473L218.971 476.489M218.971 476.489L185.399 455.715L186.141 418.434M218.971 476.489V404.152L186.141 418.434M186.141 418.434L38.1282 482.981M38.1282 482.981L4 461.094V390.983M4 390.983L161.843 48.5877M221.382 331.073L117.513 376.886L138.555 331.073M221.382 331.073L218.971 155.98L187.452 224.608M221.382 331.073L186.141 311.041M186.141 311.041L187.452 224.608M186.141 311.041L138.555 331.073M187.452 224.608L138.555 331.073" stroke="#333333" stroke-width="8"/>
</svg>
